<svg width="64" height="64" viewBox="0 0 64 64" fill="none" xmlns="http://www.w3.org/2000/svg" role="img" aria-label="eBay2 Logo">
  <defs>
    <linearGradient id="bagBg" x1="2" y1="2" x2="62" y2="62" gradientUnits="userSpaceOnUse">
      <stop stop-color="#2dd4bf"/>
      <stop offset="1" stop-color="#0d9488"/>
    </linearGradient>
  </defs>
  <rect x="2" y="2" width="60" height="60" rx="16" fill="url(#bagBg)"/>
  <path d="M24 28 V24 a8 8 0 0 1 16 0 V28" stroke="#ffffff" stroke-width="3.5" stroke-linecap="round" fill="none"/>
  <path d="M18 27 h28 a3 3 0 0 1 3 3 l-2 18 a5 5 0 0 1 -5 4.4 H22 a5 5 0 0 1 -5 -4.4 l-2 -18 a3 3 0 0 1 3 -3 z" fill="#ffffff"/>
  <text x="32" y="45.5" font-family="Arial, Helvetica, sans-serif" font-size="20" font-weight="700" fill="url(#bagBg)" text-anchor="middle">€</text>
</svg>
